<svg xmlns="http://www.w3.org/2000/svg" width="20" height="20" viewBox="0 0 20 20">
  <defs>
    <style>
      .cls-1 {
        fill: #7a7a7a;
      }
    </style>
  </defs>
  <path id="bank_1_" data-name="bank(1)" class="cls-1" d="M10,0l8.262,3.75h1.113A.625.625,0,0,1,20,4.375v2.5a.625.625,0,0,1-.625.625H18.75v8.75a.625.625,0,0,1,.606.475l.625,2.5a.622.622,0,0,1-.606.775H.625a.622.622,0,0,1-.606-.775l.625-2.5a.626.626,0,0,1,.606-.475V7.5H.625A.625.625,0,0,1,0,6.875v-2.5A.625.625,0,0,1,.625,3.75H1.738ZM4.721,3.75H15.28L10,1.25ZM2.5,7.5v8.75H3.75V7.5ZM5,7.5v8.75H8.125V7.5Zm4.375,0v8.75h1.25V7.5Zm2.5,0v8.75H15V7.5Zm4.375,0v8.75H17.5V7.5Zm2.5-1.25V5H1.25V6.25ZM18.263,17.5H1.738l-.312,1.25h17.15Z" transform="translate(0)"/>
</svg>
