<svg xmlns="http://www.w3.org/2000/svg" width="11.281" height="19" viewBox="0 0 11.281 19">
  <path id="currency-dollar" d="M4,14.274c.2,2.262,2.053,3.868,4.874,4.076V20h1.415V18.35c3.081-.243,4.992-1.952,4.992-4.479,0-2.158-1.285-3.406-4.012-4.109l-.98-.254V4.348A2.9,2.9,0,0,1,13.1,6.541h1.995c-.225-2.171-2.09-3.729-4.8-3.9V1H8.874V2.673c-2.632.312-4.438,2-4.438,4.283,0,1.973,1.311,3.37,3.611,3.959l.828.22v5.471a3.152,3.152,0,0,1-2.892-2.332H4ZM8.6,9.068c-1.416-.357-2.171-1.12-2.171-2.193A2.6,2.6,0,0,1,8.873,4.394V9.137L8.6,9.07Zm2.159,2.541c1.747.438,2.513,1.166,2.513,2.4,0,1.489-1.121,2.481-2.986,2.632v-5.15l.472.117Z" transform="translate(-4 -1)" fill="#fff"/>
</svg>
