<svg id="file-earmark-text" xmlns="http://www.w3.org/2000/svg" width="14.25" height="19" viewBox="0 0 14.25 19">
  <path id="Path_745" data-name="Path 745" d="M5.85,7a.85.85,0,1,0,0,1.7h8.5a.85.85,0,0,0,0-1.7ZM5,11.249a.85.85,0,0,1,.85-.85h8.5a.85.85,0,0,1,0,1.7H5.85A.85.85,0,0,1,5,11.249Zm0,3.4a.85.85,0,0,1,.85-.85h3.4a.85.85,0,1,1,0,1.7H5.85A.85.85,0,0,1,5,14.648Z" transform="translate(-2.974 -0.317)" fill="#fff"/>
  <path id="Path_746" data-name="Path 746" d="M10.906,0H4.375A2.375,2.375,0,0,0,2,2.375v14.25A2.375,2.375,0,0,0,4.375,19h9.5a2.375,2.375,0,0,0,2.375-2.375V5.344Zm0,1.188V3.562a1.781,1.781,0,0,0,1.781,1.781h2.375V16.625a1.187,1.187,0,0,1-1.188,1.187h-9.5a1.187,1.187,0,0,1-1.188-1.187V2.375A1.187,1.187,0,0,1,4.375,1.188Z" transform="translate(-2)" fill="#fff"/>
</svg>
