<svg xmlns="http://www.w3.org/2000/svg" width="19" height="19" viewBox="0 0 19 19">
  <g id="gear" transform="translate(0 0)">
    <path id="Path_751" data-name="Path 751" d="M9.119,4.754a4.365,4.365,0,1,0,4.365,4.365A4.365,4.365,0,0,0,9.119,4.754ZM6.1,9.119a3.02,3.02,0,1,1,3.02,3.02A3.02,3.02,0,0,1,6.1,9.119Z" transform="translate(0.382 0.382)" fill="#fff"/>
    <path id="Path_752" data-name="Path 752" d="M11.633,1.595a2.224,2.224,0,0,0-4.266,0l-.112.379a1.037,1.037,0,0,1-1.49.618L5.419,2.4A2.224,2.224,0,0,0,2.4,5.419l.189.347a1.037,1.037,0,0,1-.618,1.49l-.379.112a2.224,2.224,0,0,0,0,4.266l.379.112a1.037,1.037,0,0,1,.618,1.49l-.19.347A2.224,2.224,0,0,0,5.419,16.6l.347-.189a1.037,1.037,0,0,1,1.49.618l.112.379a2.224,2.224,0,0,0,4.266,0l.112-.379a1.037,1.037,0,0,1,1.49-.618l.347.19A2.224,2.224,0,0,0,16.6,13.582l-.189-.347a1.037,1.037,0,0,1,.618-1.49l.379-.112a2.224,2.224,0,0,0,0-4.266l-.379-.112a1.037,1.037,0,0,1-.618-1.49l.19-.347A2.224,2.224,0,0,0,13.582,2.4l-.347.189a1.037,1.037,0,0,1-1.49-.618l-.112-.379Zm-3.127.336a1.036,1.036,0,0,1,1.988,0l.112.379a2.224,2.224,0,0,0,3.2,1.324l.346-.19a1.037,1.037,0,0,1,1.406,1.407l-.189.347a2.224,2.224,0,0,0,1.325,3.2l.378.112a1.036,1.036,0,0,1,0,1.988l-.379.112a2.224,2.224,0,0,0-1.324,3.2l.19.346a1.037,1.037,0,0,1-1.407,1.406l-.346-.189a2.224,2.224,0,0,0-3.2,1.325l-.112.378a1.036,1.036,0,0,1-1.988,0l-.112-.379a2.224,2.224,0,0,0-3.2-1.324l-.347.19A1.037,1.037,0,0,1,3.445,14.15l.189-.346A2.224,2.224,0,0,0,2.31,10.6l-.379-.112a1.036,1.036,0,0,1,0-1.988l.379-.112A2.224,2.224,0,0,0,3.634,5.2l-.19-.347A1.037,1.037,0,0,1,4.851,3.445l.347.189a2.224,2.224,0,0,0,3.2-1.324l.112-.379Z" transform="translate(0 0)" fill="#fff"/>
  </g>
</svg>
