<svg xmlns="http://www.w3.org/2000/svg" width="20.67" height="19.005" viewBox="0 0 20.67 19.005">
  <path id="house" d="M11.809,1.611a1.378,1.378,0,0,0-1.948,0L.7,10.768a.69.69,0,1,0,.976.976l.89-.891v7.293a2.067,2.067,0,0,0,2.067,2.067h12.4A2.067,2.067,0,0,0,19.1,18.145V10.852l.89.891a.69.69,0,0,0,.976-.976L17.724,7.526V2.989a.689.689,0,0,0-.689-.689H15.657a.689.689,0,0,0-.689.689V4.77Zm5.915,7.864v8.671a.689.689,0,0,1-.689.689H4.634a.689.689,0,0,1-.689-.689V9.474l6.889-6.889Z" transform="translate(-0.499 -1.207)" fill="#fff"/>
</svg>
