<svg xmlns="http://www.w3.org/2000/svg" xmlns:xlink="http://www.w3.org/1999/xlink" width="3078.051" height="920.926" viewBox="0 0 3078.051 920.926">
  <defs>
    <clipPath id="clip-path">
      <rect id="use1373" width="874.234" height="920.926"/>
    </clipPath>
  </defs>
  <g id="Group_1508" data-name="Group 1508" transform="translate(14591 13849)">
    <g id="Group_1506" data-name="Group 1506" transform="translate(-14591 -13849)" clip-path="url(#clip-path)">
      <path id="polyline1375" d="M462.6,325.977H189.753L0,0H652.837L462.6,325.977" fill="#e60000"/>
    </g>
    <g id="Group_1507" data-name="Group 1507" transform="translate(-14591 -13849)" clip-path="url(#clip-path)">
      <path id="polyline1377" d="M682.471,1.645,874.234,327.522,537.448,924.7H144.529L682.471,1.645" fill="#e60000"/>
    </g>
    <path id="path1561" d="M2729.02,453.209c-11.82-.83-31.15-3.632-40.25-5.836-40.54-9.817-60.85-27.928-69.98-62.395-2.3-8.681-2.59-11.969-3.02-33.727-.34-17.156-.14-24.731.68-26.269,1.14-2.127,1.5-2.156,23.34-1.892l22.18.269.1,18.5c.07,14.145.5,19.913,1.79,24.5,5.6,19.759,17.95,31.689,38.83,37.484,23.62,6.558,36.97,7.231,134.33,6.778,91.1-.424,97.41-.76,119.49-6.36,25.35-6.431,38.23-18.851,43.69-42.148,2.59-11.033,2.57-42.869-.03-52.174-4.9-17.545-13.54-26.863-29.65-32-16.45-5.248-17.23-5.281-138.5-6.038-108.21-.675-113.56-.794-126.16-2.812-23.85-3.82-36.53-7.536-50.18-14.712-22.28-11.707-35.92-33.787-40.16-65.02-1.69-12.471-.8-46.463,1.47-56.5q6-26.371,22.1-42.442c11.5-11.469,25.25-18.4,47.73-24.062,22.5-5.667,39.95-7.4,87.79-8.712,49.01-1.345,156.18.239,177.41,2.623,48.34,5.427,71.76,20.38,82.61,52.75,4.15,12.412,6,26.281,5.67,42.635l-.28,13.707h-45l-.65-11.5c-1.13-20.083-5.06-32.038-13.51-41.067-7.76-8.3-18.2-12.475-39.08-15.646-10.67-1.621-20.64-1.787-107.76-1.787-102.59,0-109.32.264-128.12,5.015-18.17,4.592-28.56,11.986-34.89,24.827-5.13,10.412-6.84,20.913-6.21,38.158,1.42,39.244,15.23,52.927,59.7,59.147,9.73,1.361,28.63,1.725,121.52,2.341,113.37.751,118.04.924,138.92,5.125,39.72,7.99,59.77,30.741,64.51,73.191,1.56,14.03,1.34,48.325-.39,59.7-5.14,33.869-19.89,56.548-45.04,69.249-12.87,6.5-34.41,12.142-58.91,15.437-10.39,1.4-26.09,1.654-111.59,1.821C2778.79,453.472,2731.77,453.4,2729.02,453.209Zm-1818.5-197.85V61.86h76.005L1160.19,232.109c95.52,93.638,174.26,170.4,175,170.573,1.1.267,1.37-28.979,1.58-170l.25-170.323h47l.25,193.249.25,193.25h-70.51l-168.5-165.085c-92.67-90.8-172.217-168.759-176.771-173.25-6.7-6.6-8.463-7.878-9.235-6.665-.6.937-.96,66.01-.969,173.25l-.016,171.75h-48Zm570.251.25.25-193.249h380l.27,21.247.27,21.247-166.77.253-166.77.252v121l159.77.254,159.77.253-.27,21.247-.27,21.246-159.5.5-159.5.5-.26,67.748-.25,67.747,166.75.253,166.76.252.27,21.25.27,21.25H1480.51Zm553.25,189.013C2020.7,411.687,1886.69,63.4,1887.09,62.75c.3-.49,11.09-.891,23.97-.891,23.19,0,23.43.021,24.84,2.25.79,1.238,30.77,78.075,66.63,170.749s65.65,169.336,66.19,170.358,1.34,1.471,1.77,1,29.25-77.583,64.04-171.358S2198.24,63.791,2198.79,63.1c.77-.981,8.06-1.2,32.54-1l31.54.264,63.27,171.394c34.8,94.267,63.73,171.853,64.29,172.413.69.692,1.32.245,1.95-1.394,13.12-33.788,125.6-321.953,128.98-330.413l4.78-12,24.81-.268,24.81-.268-.45,2.373c-.25,1.305-33.91,88.388-74.79,193.518l-74.33,191.144h-34.73c-26.86,0-34.83-.283-35.2-1.25-.26-.687-28.04-75.05-61.74-165.25s-61.67-165.085-62.17-166.412c-.67-1.791-1.2-2.122-2.03-1.286-.62.62-29.09,75.956-63.26,167.413l-62.13,166.285-34.59.263-34.59.263Z" transform="translate(-14563.448 -13590.717)" fill="#fff"/>
  </g>
</svg>
