<?xml version="1.0" encoding="UTF-8" standalone="no"?>
<!-- Created with Inkscape (http://www.inkscape.org/) -->
<svg xmlns:i="http://ns.adobe.com/AdobeIllustrator/10.0/" xmlns:dc="http://purl.org/dc/elements/1.1/" xmlns:cc="http://web.resource.org/cc/" xmlns:rdf="http://www.w3.org/1999/02/22-rdf-syntax-ns#" xmlns:svg="http://www.w3.org/2000/svg" xmlns="http://www.w3.org/2000/svg" xmlns:xlink="http://www.w3.org/1999/xlink" xmlns:sodipodi="http://sodipodi.sourceforge.net/DTD/sodipodi-0.dtd" xmlns:inkscape="http://www.inkscape.org/namespaces/inkscape" width="3084" height="925" id="svg2" sodipodi:version="0.32" inkscape:version="0.44.1" version="1.0" sodipodi:docbase="C:\Documents and Settings\Tris\My Documents" sodipodi:docname="Seven News.svg">
  <defs id="defs4">
    <defs id="defs1369">
      <rect y="0" x="0" id="XMLID_1_" width="442.039" height="465.64801"/>
    </defs>
    <clipPath id="XMLID_3_">
      <use height="1052.3622" width="744.09448" y="0" x="0" xlink:href="#XMLID_1_" id="use1373"/>
    </clipPath>
  </defs>
  <sodipodi:namedview id="base" pagecolor="#ffffff" bordercolor="#666666" borderopacity="1.0" inkscape:pageopacity="0.0" inkscape:pageshadow="2" inkscape:zoom="0.35" inkscape:cx="1646.1519" inkscape:cy="260.21687" inkscape:document-units="px" inkscape:current-layer="Layer_1" inkscape:window-width="1024" inkscape:window-height="712" inkscape:window-x="-4" inkscape:window-y="-4"/>
  <metadata id="metadata7">
    <rdf:RDF>
      <cc:Work rdf:about="">
        <dc:format>image/svg+xml</dc:format>
        <dc:type rdf:resource="http://purl.org/dc/dcmitype/StillImage"/>
      </cc:Work>
    </rdf:RDF>
  </metadata>
  <g inkscape:label="Layer 1" inkscape:groupmode="layer" id="layer1">
    <g i:rgbTrio="#4F008000FFFF" i:dimmedPercent="50" i:layer="yes" id="Layer_1" transform="translate(27.55197,258.5847)">
      <polyline style="fill:#e60000" i:knockout="Off" clip-path="url(#XMLID_3_)" points="233.906,164.824 95.945,164.824 0,0 330.094,0       233.906,164.824 " id="polyline1375" transform="matrix(1.977731,0,0,1.977731,-27.55197,-258.2827)"/>
      <polyline style="fill:#e60000" i:knockout="Off" clip-path="url(#XMLID_3_)" points="345.078,0.832 442.039,165.605 271.75,467.555       73.078,467.555 345.078,0.832 " id="polyline1377" transform="matrix(1.977731,0,0,1.977731,-27.55197,-258.2827)"/>
      <path id="path1561" d="M 2729.0195,453.2087 C 2717.2033,452.3795 2697.8741,449.5768 2688.7713,447.3727 C 2648.2316,437.5565 2627.9182,419.4452 2618.7904,384.97835 C 2616.4915,376.29726 2616.197,373.00905 2615.7702,351.25127 C 2615.4337,334.09547 2615.6309,326.51992 2616.4538,324.98226 C 2617.5925,322.85458 2617.9503,322.82557 2639.7886,323.09046 L 2661.9669,323.35947 L 2662.0664,341.85947 C 2662.1425,356.00364 2662.5658,361.77217 2663.8643,366.35947 C 2669.4574,386.11806 2681.8146,398.048 2702.6909,403.8433 C 2726.3123,410.4008 2739.6556,411.074 2837.0195,410.621 C 2928.1182,410.1971 2934.43,409.8612 2956.5076,404.2607 C 2981.86,397.82956 2994.735,385.4099 3000.2005,362.11305 C 3002.7888,351.08032 3002.7706,319.24376 3000.1706,309.93943 C 2995.2679,292.39434 2986.6347,283.07615 2970.5195,277.93571 C 2954.0693,272.68841 2953.2937,272.6546 2832.0195,271.89796 C 2723.8138,271.22285 2718.4613,271.10355 2705.8632,269.08597 C 2682.0118,265.26615 2669.3346,261.54974 2655.6797,254.37429 C 2633.4,242.66666 2619.7639,220.58672 2615.5247,189.35423 C 2613.8319,176.88269 2614.7159,142.89095 2616.994,132.85947 C 2620.9866,115.27765 2628.3519,101.13351 2639.095,90.41729 C 2650.5927,78.94841 2664.3376,72.01896 2686.8235,66.35519 C 2709.3214,60.68838 2726.7723,58.95662 2774.6098,57.64365 C 2823.6226,56.29841 2930.7858,57.8827 2952.0195,60.26646 C 3000.3647,65.69382 3023.7807,80.64682 3034.6258,113.01733 C 3038.7841,125.42914 3040.6291,139.2978 3040.2974,155.65215 L 3040.0195,169.35947 L 3017.5195,169.35947 L 2995.0195,169.35947 L 2994.3711,157.85947 C 2993.2387,137.77605 2989.3054,125.82119 2980.8592,116.7916 C 2973.0999,108.49624 2962.6609,104.3167 2941.7818,101.1458 C 2931.108,99.52478 2921.1354,99.35947 2834.0195,99.35947 C 2731.4327,99.35947 2724.6958,99.62313 2705.8985,104.37371 C 2687.728,108.96588 2677.3377,116.36023 2671.0114,129.20142 C 2665.8821,139.61315 2664.1722,150.11395 2664.7979,167.35947 C 2666.2217,206.60319 2680.0319,220.28557 2724.4963,226.50564 C 2734.2272,227.86688 2753.1284,228.231 2846.0195,228.84675 C 2959.3883,229.59824 2964.0589,229.77054 2984.942,233.97156 C 3024.6626,241.96208 3044.7136,264.71308 3049.447,307.16256 C 3051.0115,321.19296 3050.792,355.48756 3049.0649,366.85947 C 3043.9212,400.7282 3029.169,423.4067 3004.0195,436.1077 C 2991.1542,442.6049 2969.6139,448.2499 2945.1146,451.5448 C 2934.7212,452.9426 2919.0203,453.1988 2833.5195,453.3655 C 2778.7945,453.4722 2731.7695,453.4016 2729.0195,453.2087 z M 910.51946,255.35947 L 910.51946,61.85947 L 948.52173,61.85947 L 986.524,61.85947 L 1160.1904,232.10947 C 1255.707,325.74697 1334.4546,402.5047 1335.1853,402.6822 C 1336.2852,402.9495 1336.5572,373.70323 1336.7666,232.68224 L 1337.0195,62.35947 L 1360.5195,62.35947 L 1384.0195,62.35947 L 1384.272,255.60947 L 1384.5245,448.8595 L 1349.2652,448.8595 L 1314.006,448.8595 L 1145.5127,283.77405 C 1052.8414,192.97707 973.29316,115.01457 968.7388,110.52405 C 962.04082,103.91996 960.2758,102.64616 959.50412,103.85947 C 958.90842,104.79607 958.54433,169.86922 958.53477,277.10947 L 958.51946,448.8595 L 934.51946,448.8595 L 910.51946,448.8595 L 910.51946,255.35947 z M 1480.7669,255.60947 L 1481.0195,62.35947 L 1671.0195,62.35947 L 1861.0195,62.35947 L 1861.2893,83.60654 L 1861.5592,104.8536 L 1694.7893,105.10654 L 1528.0195,105.35947 L 1528.0195,165.85947 L 1528.0195,226.35947 L 1687.7893,226.61253 L 1847.5592,226.86559 L 1847.2893,248.11253 L 1847.0195,269.35947 L 1687.5195,269.85947 L 1528.0195,270.35947 L 1527.7625,338.10654 L 1527.5055,405.8536 L 1694.2625,406.1065 L 1861.0195,406.3595 L 1861.2894,427.6095 L 1861.5592,448.8595 L 1671.0368,448.8595 L 1480.5144,448.8595 L 1480.7669,255.60947 z M 2034.0228,444.6223 C 2020.7017,411.6874 1886.6873,63.39698 1887.0869,62.75035 C 1887.3897,62.26036 1898.1756,61.85947 1911.0555,61.85947 C 1934.2511,61.85947 1934.4869,61.88083 1935.9008,64.10947 C 1936.6859,65.34697 1966.669,142.18447 2002.5298,234.85947 C 2038.3907,327.53447 2068.1754,404.1953 2068.7181,405.2168 C 2069.2608,406.2384 2070.0575,406.6884 2070.4885,406.2168 C 2070.9196,405.7453 2099.7386,328.63447 2134.5307,234.85947 C 2169.3229,141.08447 2198.2388,63.79073 2198.7883,63.09561 C 2199.5637,62.11471 2206.8498,61.89082 2231.3309,62.09561 L 2262.8744,62.35947 L 2326.1409,233.75341 C 2360.9375,328.02008 2389.8659,405.6059 2390.4263,406.1663 C 2391.1181,406.8581 2391.7459,406.4107 2392.3821,404.7723 C 2405.5017,370.98426 2517.9844,82.81917 2521.3558,74.35947 L 2526.1382,62.35947 L 2550.9488,62.09174 L 2575.7594,61.82401 L 2575.3059,64.19677 C 2575.0564,65.50179 2541.4032,152.58477 2500.5209,257.7145 L 2426.1896,448.8595 L 2391.4616,448.8595 C 2364.5973,448.8595 2356.6267,448.5764 2356.2619,447.6095 C 2356.0025,446.922 2328.2208,372.55947 2294.5248,282.35947 C 2260.8288,192.15947 2232.8511,117.27369 2232.3522,115.94663 C 2231.6793,114.15647 2231.1543,113.8247 2230.3179,114.66106 C 2229.6979,115.28105 2201.2317,190.61683 2167.0596,282.07389 L 2104.9286,448.3595 L 2070.3378,448.6223 L 2035.7469,448.8851 L 2034.0228,444.6223 z " style="fill:black"/>
    </g>
  </g>
</svg>