<svg id="person-bounding-box" xmlns="http://www.w3.org/2000/svg" width="19" height="19" viewBox="0 0 19 19">
  <path id="Path_743" data-name="Path 743" d="M1.781,1.187a.594.594,0,0,0-.594.594V5.344A.594.594,0,1,1,0,5.344V1.781A1.781,1.781,0,0,1,1.781,0H5.344a.594.594,0,1,1,0,1.187ZM13.062.594A.594.594,0,0,1,13.656,0h3.563A1.781,1.781,0,0,1,19,1.781V5.344a.594.594,0,0,1-1.187,0V1.781a.594.594,0,0,0-.594-.594H13.656a.594.594,0,0,1-.594-.594ZM.594,13.062a.594.594,0,0,1,.594.594v3.563a.594.594,0,0,0,.594.594H5.344a.594.594,0,0,1,0,1.188H1.781A1.781,1.781,0,0,1,0,17.219V13.656a.594.594,0,0,1,.594-.594Zm17.813,0a.594.594,0,0,1,.594.594v3.563A1.781,1.781,0,0,1,17.219,19H13.656a.594.594,0,1,1,0-1.187h3.563a.594.594,0,0,0,.594-.594V13.656A.594.594,0,0,1,18.406,13.062Z" transform="translate(0 0)" fill="#fff"/>
  <path id="Path_744" data-name="Path 744" d="M3.028,14.338A1.007,1.007,0,0,1,2,13.31C2,12.282,3.028,9.2,8.169,9.2s6.169,3.085,6.169,4.113a1.007,1.007,0,0,1-1.028,1.028Zm8.225-9.254A3.085,3.085,0,1,1,8.169,2,3.085,3.085,0,0,1,11.254,5.085Z" transform="translate(1.331 1.331)" fill="#fff"/>
</svg>
