<svg xmlns="http://www.w3.org/2000/svg" width="16.625" height="19" viewBox="0 0 16.625 19">
  <g id="shield-lock" transform="translate(-1)">
    <path id="Path_753" data-name="Path 753" d="M6.151,1.888q-1.7.468-3.369,1.016a.571.571,0,0,0-.39.463A14.33,14.33,0,0,0,5.068,14.279,12.736,12.736,0,0,0,7.784,16.93a7.216,7.216,0,0,0,1.06.633,2.64,2.64,0,0,0,.348.14.653.653,0,0,0,.12.03.731.731,0,0,0,.119-.03,2.581,2.581,0,0,0,.349-.14,7.388,7.388,0,0,0,1.06-.633,12.737,12.737,0,0,0,2.716-2.652A14.328,14.328,0,0,0,16.232,3.368a.57.57,0,0,0-.39-.463c-.773-.253-2.078-.665-3.369-1.015a15.445,15.445,0,0,0-3.161-.622,15.46,15.46,0,0,0-3.161.622ZM5.836.665A16.166,16.166,0,0,1,9.313,0,16.166,16.166,0,0,1,12.79.665c1.318.356,2.647.778,3.428,1.033a1.829,1.829,0,0,1,1.24,1.5A15.62,15.62,0,0,1,14.53,15.06a13.983,13.983,0,0,1-2.989,2.913,8.5,8.5,0,0,1-1.245.742A2.519,2.519,0,0,1,9.313,19a2.524,2.524,0,0,1-.984-.285,8.5,8.5,0,0,1-1.244-.742A13.985,13.985,0,0,1,4.095,15.06,15.62,15.62,0,0,1,1.167,3.2a1.829,1.829,0,0,1,1.24-1.5Q4.109,1.14,5.836.665Z" fill="#fff"/>
    <path id="Path_754" data-name="Path 754" d="M10.562,7.031A2.031,2.031,0,0,1,9.208,8.947l.521,2.695a.677.677,0,0,1-.665.806H8a.677.677,0,0,1-.664-.806l.52-2.695a2.031,2.031,0,1,1,2.708-1.916Z" transform="translate(0.781 0.501)" fill="#fff"/>
  </g>
</svg>
