<svg xmlns="http://www.w3.org/2000/svg" width="20.654" height="19" viewBox="0 0 20.654 19">
  <path id="wallet2" d="M15.666.339a1.936,1.936,0,0,1,2.406,1.877V3.791h.645a1.936,1.936,0,0,1,1.936,1.936V17.345a1.936,1.936,0,0,1-1.936,1.936H1.936A1.936,1.936,0,0,1,0,17.345V5.727A1.936,1.936,0,0,1,1.849,3.792ZM7.18,3.791h9.6V2.216a.645.645,0,0,0-.8-.625ZM1.936,5.082a.645.645,0,0,0-.645.645V17.345a.645.645,0,0,0,.645.645H18.717a.645.645,0,0,0,.645-.645V5.727a.645.645,0,0,0-.645-.645Z" transform="translate(0 -0.281)" fill="#fff"/>
</svg>
