<svg xmlns="http://www.w3.org/2000/svg" width="18.999" height="19" viewBox="0 0 18.999 19">
  <path id="x-diamond" d="M9.485,19a1.812,1.812,0,0,1-1.271-.532L.534,10.785a1.818,1.818,0,0,1,0-2.571L8.214.534a1.818,1.818,0,0,1,2.572,0l7.682,7.681a1.819,1.819,0,0,1,0,2.571l-7.684,7.682a1.812,1.812,0,0,1-1.3.532ZM9.072,1.389,5.66,4.8,9.5,8.643,13.341,4.8,9.929,1.389a.606.606,0,0,0-.857,0ZM10.358,9.5,14.2,13.341,17.61,9.929a.6.6,0,0,0,0-.857L14.2,5.66Zm-.857.857L5.66,14.2,9.072,17.61a.6.6,0,0,0,.857,0L13.341,14.2ZM8.643,9.5,4.8,5.66,1.389,9.072a.607.607,0,0,0,0,.857L4.8,13.341Z" transform="translate(-0.002 -0.001)" fill="#fff"/>
</svg>
